# xmcd
#
# Track frame offsets:
#	150
#	19097
#	32995
#	55817
#	76988
#	88276
#	102856
#	112191
#	126612
#	140242
#	155512
#	168274
#	179504
#	192844
#
# Disc length: 3016 seconds
# Revision: 0
# Processed by: cddbd v1.5.2PL0 Copyright (c) Steve Scherf et al.
# Submitted via: dBpowerAMP V12.0
#
DISCID=ca0bc60e
DTITLE=Jalan Crossland - Poorboy Shanty
DYEAR=1900
DGENRE=Acoustic
TTITLE0=Poorboy Shanty
TTITLE1=A Minstrel's Wage
TTITLE2=Woodpecker and the Stovepipe
TTITLE3=Shadows of Crows
TTITLE4=Little Beggerman
TTITLE5=Slow Your Pony Down
TTITLE6=Look Up Yonder
TTITLE7=Pegleg
TTITLE8=Give it All to You
TTITLE9=Nine Pound Hammer
TTITLE10=Shade of the Trees
TTITLE11=Temperence Reel
TTITLE12=Trouble in Mind
TTITLE13=The Mad Carpenter
EXTD=
EXTT0=
EXTT1=
EXTT2=
EXTT3=
EXTT4=
EXTT5=
EXTT6=
EXTT7=
EXTT8=
EXTT9=
EXTT10=
EXTT11=
EXTT12=
EXTT13=
PLAYORDER=
